# xmcd CD database file
#
# Track frame offsets:
#	150
#	23325
#	36933
#	60432
#	95181
#	112739
#	142585
#	163258
#	185809
#	203689
#	231013
#	244923
#	273338
#	286193
#	312085
#
# Disc length: 4514 seconds
#
# Revision: 0
# Processed by: cddbd v1.5.2PL0 Copyright (c) Steve Scherf et al.
# Submitted via: CDex 1.70beta2
#
DISCID=c511a00f
DTITLE=Stan Getz Quintet (feat. Jimmy Raney) - Birdland Sessions
DYEAR=1952
DGENRE=Jazz
TTITLE0=Potter's Luck
TTITLE1=I can't get started
TTITLE2=Parker 51
TTITLE3=Long Island Sound
TTITLE4='Round About Midnight
TTITLE5=Spotlite
TTITLE6=Yesterdays
TTITLE7=Woody'n You
TTITLE8=Yesterdays
TTITLE9=The Song Is You
TTITLE10=I Only Have Eyes For You
TTITLE11=Move
TTITLE12=My Old Flame
TTITLE13=Move
TTITLE14=I'll Remember April (incomplete)
EXTD=YEAR: 1952
EXTT0=
EXTT1=
EXTT2=
EXTT3=
EXTT4=
EXTT5=
EXTT6=
EXTT7=
EXTT8=
EXTT9=
EXTT10=
EXTT11=
EXTT12=
EXTT13=
EXTT14=
PLAYORDER=
